<svg xmlns="http://www.w3.org/2000/svg" viewBox="0 0 240 240" role="img" aria-labelledby="title desc">
  <title id="title">Design System Guardian Token G</title>
  <desc id="desc">A geometric G built from eleven approved token blocks plus one conspicuous missing-token sentinel.</desc>
  <defs>
    <linearGradient id="tokenBlock" x1="50" y1="44" x2="188" y2="194" gradientUnits="userSpaceOnUse">
      <stop offset="0" stop-color="#3157D8"/>
      <stop offset="1" stop-color="#6D28D9"/>
    </linearGradient>
  </defs>
  <rect data-role="container" x="18" y="18" width="204" height="204" rx="56" fill="#10131A" stroke="#374151" stroke-width="3"/>
  <g fill="url(#tokenBlock)">
    <rect data-role="token" data-kind="approved" x="77" y="43" width="32" height="32" rx="9"/>
    <rect data-role="token" data-kind="approved" x="116" y="43" width="32" height="32" rx="9"/>
    <rect data-role="token" data-kind="approved" x="155" y="43" width="32" height="32" rx="9"/>
    <rect data-role="token" data-kind="approved" x="45" y="76" width="32" height="32" rx="9"/>
    <rect data-role="token" data-kind="approved" x="45" y="115" width="32" height="32" rx="9"/>
    <rect data-role="token" data-kind="approved" x="45" y="154" width="32" height="32" rx="9"/>
    <rect data-role="token" data-kind="approved" x="77" y="181" width="32" height="32" rx="9"/>
    <rect data-role="token" data-kind="approved" x="116" y="181" width="32" height="32" rx="9"/>
    <rect data-role="token" data-kind="approved" x="155" y="181" width="32" height="32" rx="9"/>
    <rect data-role="token" data-kind="approved" x="155" y="142" width="32" height="32" rx="9"/>
    <rect data-role="token" data-kind="approved" x="116" y="115" width="32" height="32" rx="9"/>
  </g>
  <rect data-role="token" data-kind="sentinel" x="155" y="103" width="32" height="32" rx="9" fill="#FF4D67" stroke="#FFCCD4" stroke-width="4"/>
  <path d="M165 119h12" stroke="#FFFFFF" stroke-width="5" stroke-linecap="round"/>
  <circle cx="61" cy="92" r="5" fill="#C7D2FE"/>
  <circle cx="61" cy="131" r="5" fill="#C7D2FE"/>
  <circle cx="61" cy="170" r="5" fill="#C7D2FE"/>
  <rect x="8" y="8" width="224" height="224" rx="52" fill="none" stroke="#FFFFFF" stroke-opacity="0.08"/>
</svg>
